<svg xmlns="http://www.w3.org/2000/svg" width="12.341" height="13.026" viewBox="0 0 12.341 13.026"><defs><style>.a{fill:#999;}</style></defs><path class="a" d="M13.969,8.17a4.515,4.515,0,0,1-.617,2.249l-.843-.843A3.506,3.506,0,0,0,12.8,8.17h1.165m-2.742.11L7.114,4.18V4.057a2.057,2.057,0,0,1,4.114,0V8.28M3.871,2.686l11.47,11.47-.871.871L11.6,12.154a4.819,4.819,0,0,1-1.741.624v2.249H8.485V12.777A4.788,4.788,0,0,1,4.371,8.17H5.537a3.557,3.557,0,0,0,3.634,3.5,3.77,3.77,0,0,0,1.584-.357L9.616,10.172l-.446.055A2.057,2.057,0,0,1,7.114,8.17V7.677L3,3.556Z" transform="translate(-3 -2)"/></svg>