<svg xmlns="http://www.w3.org/2000/svg" width="25.87" height="17.7" viewBox="0 0 25.87 17.7"><defs><style>.a{fill:#9a9a9a;}</style></defs><g transform="translate(-8.086 -122.519)"><g transform="translate(0.012 122.519)"><g transform="translate(8.074 0)"><path class="a" d="M138.181,136.423s-4.231-1.082-4.827-2.258a1.916,1.916,0,0,1,.268-1.7q.186-.249.363-.528v0a8.711,8.711,0,0,0,1.3-4.427,4.755,4.755,0,0,0-4.594-4.985h-.011a4.755,4.755,0,0,0-4.594,4.985,8.721,8.721,0,0,0,1.3,4.427h0v0q.176.28.363.528a1.91,1.91,0,0,1,.267,1.7c-.595,1.177-4.827,2.258-4.827,2.258a2.043,2.043,0,0,0-1.4,1.937v1.858h17.8V138.36A2.041,2.041,0,0,0,138.181,136.423Z" transform="translate(-121.786 -122.519)"/></g><g transform="translate(24.119 4.829)"><path class="a" d="M372.6,205.47v0c-.047-.015-3.08-.785-3.514-1.641a1.387,1.387,0,0,1,.2-1.237c.09-.122.178-.251.263-.385h0a6.363,6.363,0,0,0,.946-3.22,3.459,3.459,0,0,0-3.344-3.626h-.008a3.457,3.457,0,0,0-3.343,3.626,6.353,6.353,0,0,0,.945,3.22h0q.129.2.265.385c.013.023.027.048.04.073a4.011,4.011,0,0,1,2.486,3.709v1.858h6.087v-1.351A1.484,1.484,0,0,0,372.6,205.47Z" transform="translate(-363.796 -195.36)"/></g></g></g></svg>