<svg xmlns="http://www.w3.org/2000/svg" width="20.748" height="15.44" viewBox="0 0 20.748 15.44"><defs><style>.a{fill:#800d0d;}</style></defs><path class="a" d="M20.5,14.818a14.711,14.711,0,0,0-20.247,0,.866.866,0,0,0,0,1.219l2.144,2.144a.879.879,0,0,0,.631.259.847.847,0,0,0,.588-.251,9.694,9.694,0,0,1,2.3-1.6.861.861,0,0,0,.484-.778v-2.68a13.015,13.015,0,0,1,7.954,0v2.68a.861.861,0,0,0,.484.778,9.694,9.694,0,0,1,2.3,1.6.847.847,0,0,0,.588.251.879.879,0,0,0,.631-.259L20.5,16.037a.866.866,0,0,0,0-1.219M5.619,5.161l4.755,4.755,6.052-6.052L15.561,3,10.374,8.187,6.484,4.3H9.51V3H4.323V8.187h1.3Z" transform="translate(0 -3)"/></svg>