<svg xmlns="http://www.w3.org/2000/svg" width="36.766" height="13.573" viewBox="0 0 36.766 13.573"><defs><style>.a{fill:#d5d5d5;}</style></defs><path class="a" d="M18.383,10.064a22.842,22.842,0,0,0-7.047,1.1v4.749a1.526,1.526,0,0,1-.858,1.379,18.059,18.059,0,0,0-4.09,2.834,1.438,1.438,0,0,1-1.026.444,1.558,1.558,0,0,1-1.118-.46l-3.8-3.8a1.535,1.535,0,0,1,0-2.16,26.068,26.068,0,0,1,35.878,0,1.535,1.535,0,0,1,0,2.16l-3.8,3.8a1.558,1.558,0,0,1-1.118.46,1.5,1.5,0,0,1-1.042-.444,17.634,17.634,0,0,0-4.075-2.834,1.526,1.526,0,0,1-.858-1.379V11.167A22.842,22.842,0,0,0,18.383,10.064Z" transform="translate(0 -7)"/></svg>