<svg xmlns="http://www.w3.org/2000/svg" width="20.069" height="20.069" viewBox="0 0 20.069 20.069"><defs><style>.a{fill:#fff;}</style></defs><path class="a" d="M7.036,11.685a16.832,16.832,0,0,0,7.348,7.348l2.453-2.453a1.119,1.119,0,0,1,1.137-.279,12.666,12.666,0,0,0,3.98.636,1.115,1.115,0,0,1,1.115,1.115v3.9a1.115,1.115,0,0,1-1.115,1.115A18.954,18.954,0,0,1,3,4.115,1.115,1.115,0,0,1,4.115,3h3.9A1.115,1.115,0,0,1,9.132,4.115,12.666,12.666,0,0,0,9.768,8.1a1.119,1.119,0,0,1-.279,1.137Z" transform="translate(-3 -3)"/></svg>