<svg xmlns="http://www.w3.org/2000/svg" width="20.5" height="17.896" viewBox="0 0 20.5 17.896"><g transform="translate(-26 -54.899)"><path class="a" d="M32.05,75.795h16.4a2.038,2.038,0,0,0,2.05-2.05v-10.3c0-1.538-2.516-1.957-4.612-2.05a.793.793,0,0,1-.792-.513c-.652-1.77-1.072-3.075-2.8-2.982H38.2c-1.724-.093-2.143,1.211-2.8,2.982a.968.968,0,0,1-.745.513c-2.1,0-4.659.513-4.659,2.05v10.3A2.038,2.038,0,0,0,32.05,75.795Zm8.2-13.045a5.381,5.381,0,1,1-5.358,5.358A5.359,5.359,0,0,1,40.25,62.749Z" transform="translate(-4 -3)" fill="#444"/></g></svg>
