<svg xmlns="http://www.w3.org/2000/svg" width="16" height="16.445" viewBox="0 0 16 16.445"><defs><style>.a{fill:#636465;}</style></defs><path class="a" d="M10.271,6.934a3.289,3.289,0,1,1-3.289,3.289,3.289,3.289,0,0,1,3.289-3.289m0,1.645a1.645,1.645,0,1,0,1.645,1.645,1.645,1.645,0,0,0-1.645-1.645M8.626,18.445a.416.416,0,0,1-.411-.345l-.3-2.179a5.711,5.711,0,0,1-1.39-.814l-2.047.83a.413.413,0,0,1-.5-.181L2.328,12.911a.405.405,0,0,1,.1-.526L4.161,11.02l-.058-.8L4.161,9.4,2.426,8.06a.405.405,0,0,1-.1-.526L3.972,4.689a.4.4,0,0,1,.5-.181l2.047.822a5.96,5.96,0,0,1,1.39-.806l.3-2.179A.416.416,0,0,1,8.626,2h3.289a.416.416,0,0,1,.411.345l.3,2.179a5.96,5.96,0,0,1,1.39.806l2.047-.822a.4.4,0,0,1,.5.181l1.645,2.845a.405.405,0,0,1-.1.526L16.38,9.4l.058.822-.058.822,1.735,1.34a.405.405,0,0,1,.1.526l-1.645,2.845a.4.4,0,0,1-.5.181l-2.047-.822a5.96,5.96,0,0,1-1.39.806l-.3,2.179a.416.416,0,0,1-.411.345H8.626m1.028-14.8-.3,2.146A4.516,4.516,0,0,0,6.858,7.254L4.877,6.4,4.26,7.468,5.995,8.742a4.563,4.563,0,0,0,0,2.96L4.252,12.985l.617,1.069,2-.855a4.476,4.476,0,0,0,2.475,1.447l.3,2.154H10.9l.3-2.146A4.537,4.537,0,0,0,13.675,13.2l2,.855.617-1.069-1.743-1.274a4.588,4.588,0,0,0,0-2.968l1.735-1.274L15.665,6.4l-1.982.855A4.457,4.457,0,0,0,11.192,5.8l-.3-2.154Z" transform="translate(-2.271 -2)"/></svg>