<svg xmlns="http://www.w3.org/2000/svg" width="15.786" height="15.786" viewBox="0 0 15.786 15.786"><defs><style>.a{fill:#6e6e6e;}</style></defs><g transform="translate(0 0)"><path class="a" d="M8.893,1a7.893,7.893,0,1,0,7.893,7.893A7.893,7.893,0,0,0,8.893,1Zm0,13.53A5.638,5.638,0,1,1,14.53,8.893,5.638,5.638,0,0,1,8.893,14.53Z" transform="translate(-1 -1)"/><circle class="a" cx="1.128" cy="1.128" r="1.128" transform="translate(4.51 4.51)"/><circle class="a" cx="1.128" cy="1.128" r="1.128" transform="translate(9.02 4.51)"/><path class="a" d="M8.376,11.383a3.384,3.384,0,0,0,3.314-2.7A.571.571,0,0,0,11.131,8H5.621a.571.571,0,0,0-.559.679,3.384,3.384,0,0,0,3.314,2.7Z" transform="translate(-0.483 -0.107)"/></g></svg>