<svg xmlns="http://www.w3.org/2000/svg" width="16" height="16" viewBox="0 0 16 16"><defs><style>.a{fill:#636465;}</style></defs><path class="a" d="M11,3.889,9.142,5.747,11,7.6M4.129,3,3,4.129l4.2,4.2H3v5.333H6.556L11,18.111V12.129l3.778,3.787a6.133,6.133,0,0,1-2,1.04V18.8a8.012,8.012,0,0,0,3.271-1.609L17.871,19,19,17.871l-8-8M17.222,11a6.082,6.082,0,0,1-.48,2.347l1.342,1.342A7.925,7.925,0,0,0,19,11a8.006,8.006,0,0,0-6.222-7.8V5.036A6.227,6.227,0,0,1,17.222,11M15,11a3.969,3.969,0,0,0-2.222-3.582V9.382l2.178,2.178A2.345,2.345,0,0,0,15,11Z" transform="translate(-3 -3)"/></svg>